<svg width="62" height="56" viewBox="0 0 62 56" fill="none" xmlns="http://www.w3.org/2000/svg">
<g id="Group 42">
<g id="Group 4">
<path id="Rectangle 48" d="M0 7.73019C0 7.17791 0.447715 6.73019 1 6.73019C1.55228 6.73019 2 7.17791 2 7.73019V25.4418H0V7.73019Z" fill="#FA8100"/>
<path id="Rectangle 49" d="M6 1.08383C6 0.531547 6.44772 0.0838318 7 0.0838318C7.55228 0.0838318 8 0.531547 8 1.08383V25.4418H6V1.08383Z" fill="#FA8100"/>
<path id="Rectangle 50" d="M12 6.39072C12 5.83843 12.4477 5.39072 13 5.39072C13.5523 5.39072 14 5.83843 14 6.39072V25.4418H12V6.39072Z" fill="#FA8100"/>
<path id="Rectangle 51" d="M18 14.1406C18 13.5883 18.4477 13.1406 19 13.1406C19.5523 13.1406 20 13.5883 20 14.1406V25.4418H18V14.1406Z" fill="#FA8100"/>
<path id="Rectangle 52" d="M24 8.84854C24 8.29626 24.4477 7.84854 25 7.84854C25.5523 7.84854 26 8.29626 26 8.84854V25.4418H24V8.84854Z" fill="#FA8100"/>
<path id="Rectangle 53" d="M30 4.40561C30 3.85332 30.4477 3.40561 31 3.40561C31.5523 3.40561 32 3.85332 32 4.40561V25.4418H30V4.40561Z" fill="#FA8100"/>
<path id="Rectangle 54" d="M36 7.73019C36 7.17791 36.4477 6.73019 37 6.73019C37.5523 6.73019 38 7.17791 38 7.73019V25.4418H36V7.73019Z" fill="#FA8100"/>
<path id="Rectangle 55" d="M42 1.08383C42 0.531547 42.4477 0.0838318 43 0.0838318C43.5523 0.0838318 44 0.531547 44 1.08383V25.4418H42V1.08383Z" fill="#FA8100"/>
<path id="Rectangle 56" d="M48 10.2178C48 9.66555 48.4477 9.21783 49 9.21783C49.5523 9.21783 50 9.66555 50 10.2178V25.4418H48V10.2178Z" fill="#FA8100"/>
<path id="Rectangle 57" d="M54 5.5296C54 4.97732 54.4477 4.5296 55 4.5296C55.5523 4.5296 56 4.97732 56 5.5296V25.4418H54V5.5296Z" fill="#FA8100"/>
<path id="Rectangle 58" d="M60 18.008C60 17.4557 60.4477 17.008 61 17.008C61.5523 17.008 62 17.4557 62 18.008V25.4418H60V18.008Z" fill="#FA8100"/>
</g>
<g id="Group 3">
<path id="Rectangle 62" d="M0 30.4418H2V40.712C2 41.2643 1.55228 41.712 1 41.712C0.447715 41.712 0 41.2643 0 40.712V30.4418Z" fill="#008F5F"/>
<path id="Rectangle 63" d="M6 30.4418H8V50.4483C8 51.0006 7.55228 51.4483 7 51.4483C6.44772 51.4483 6 51.0006 6 50.4483V30.4418Z" fill="#008F5F"/>
<path id="Rectangle 64" d="M12 30.4418H14V44.1197C14 44.672 13.5523 45.1197 13 45.1197C12.4477 45.1197 12 44.672 12 44.1197V30.4418Z" fill="#008F5F"/>
<path id="Rectangle 65" d="M18 30.4418H20V48.0143C20 48.5665 19.5523 49.0143 19 49.0143C18.4477 49.0143 18 48.5665 18 48.0143V30.4418Z" fill="#008F5F"/>
<path id="Rectangle 66" d="M24 30.4418H26V40.712C26 41.2643 25.5523 41.712 25 41.712C24.4477 41.712 24 41.2643 24 40.712V30.4418Z" fill="#008F5F"/>
<path id="Rectangle 67" d="M30 30.4418H32V45.3095C32 45.8618 31.5523 46.3095 31 46.3095C30.4477 46.3095 30 45.8617 30 45.3095V30.4418Z" fill="#008F5F"/>
<path id="Rectangle 68" d="M36 30.4418H38V50.4483C38 51.0006 37.5523 51.4483 37 51.4483C36.4477 51.4483 36 51.0006 36 50.4483V30.4418Z" fill="#008F5F"/>
<path id="Rectangle 69" d="M42 30.4418H44V54.7998C44 55.3521 43.5523 55.7998 43 55.7998C42.4477 55.7998 42 55.352 42 54.7998V30.4418Z" fill="#008F5F"/>
<path id="Rectangle 70" d="M48 30.4418H50V49.1001C50 49.6524 49.5523 50.1001 49 50.1001C48.4477 50.1001 48 49.6524 48 49.1001V30.4418Z" fill="#008F5F"/>
<path id="Rectangle 71" d="M54 30.4418H56V45.3095C56 45.8618 55.5523 46.3095 55 46.3095C54.4477 46.3095 54 45.8617 54 45.3095V30.4418Z" fill="#008F5F"/>
<path id="Rectangle 72" d="M60 30.4418H62V40.712C62 41.2643 61.5523 41.712 61 41.712C60.4477 41.712 60 41.2643 60 40.712V30.4418Z" fill="#008F5F"/>
</g>
</g>
</svg>
